<?xml version="1.0" encoding="iso-8859-1"?>
<!-- Generator: Adobe Illustrator 16.0.0, SVG Export Plug-In . SVG Version: 6.00 Build 0)  -->
<!DOCTYPE svg PUBLIC "-//W3C//DTD SVG 1.1//EN" "http://www.w3.org/Graphics/SVG/1.1/DTD/svg11.dtd">
<svg version="1.1" id="Capa_1" xmlns="http://www.w3.org/2000/svg" xmlns:xlink="http://www.w3.org/1999/xlink" x="0px" y="0px"
	 width="920.729px" height="920.729px" viewBox="0 0 920.729 920.729" style="enable-background:new 0 0 920.729 920.729;"
	 xml:space="preserve">
<g>
	<path d="M897.491,833.729c-1.399,0-2.699,0.1-4.1,0.3l-245.7,31.8c-12.6,1.601-21.399-12.2-14.6-23c3.7-5.7,7.3-11.5,10.899-17.3
		c9.5-15.4-3.199-35.9-20.8-35.9c-1.2,0-2.399,0.101-3.7,0.301l-322,48.399l-38.5,5.8l-105,15.801c-11.9,1.8-19.9,11.899-18.9,24
		c0.4,5.399,2.6,10.5,6.1,14.3c4.1,4.5,9.8,7,16,7c1.2,0,2.4-0.101,3.7-0.3l383.8-57.7c13.101-2,22.101,12.8,14.4,23.6
		c-2.5,3.4-5,6.9-7.5,10.3c-6.9,9.4-5.3,25.101,2.7,33.2c4.1,4.2,9.3,6.4,14.8,6.4c0.6,0,1.3,0,1.899-0.101h0.101h0.1l331.3-42.199
		h0.101h0.1c5.7-0.9,10.7-4.2,14-9.301c3.601-5.6,4.9-12.5,3.3-18.699C917.391,840.329,908.591,833.729,897.491,833.729z"/>
	<path d="M755.891,191.529c26.7-31.7,22.6-79-9.1-105.7l-81.101-68.2c-31.7-26.7-79-22.6-105.7,9.1l-32.1,38.1l195.9,164.8
		L755.891,191.529z"/>
	<polygon points="698.891,258.629 502.991,93.829 436.591,172.829 632.491,337.629 	"/>
	<path d="M0.091,877.43c-0.5,6.8,5.8,12.1,12.4,10.399l49.5-12.5l-58.2-49L0.091,877.43z"/>
	<path d="M236.69,807.229l367.701-436.8l-195.901-164.8l-367.7,436.7c-6.8,8.101-10.9,18.101-11.6,28.601l-8.7,120.8l72.8,61.3
		l117.3-29.5C220.791,820.93,229.891,815.229,236.69,807.229z"/>
</g>
<g>
</g>
<g>
</g>
<g>
</g>
<g>
</g>
<g>
</g>
<g>
</g>
<g>
</g>
<g>
</g>
<g>
</g>
<g>
</g>
<g>
</g>
<g>
</g>
<g>
</g>
<g>
</g>
<g>
</g>
</svg>
