<svg id="svg" version="1.1" xmlns="http://www.w3.org/2000/svg" xmlns:xlink="http://www.w3.org/1999/xlink" width="400" height="110.83333333333334" viewBox="0, 0, 400,110.83333333333334"><g id="svgg"><path id="path0" d="M0.000 55.417 L 0.000 110.833 200.000 110.833 L 400.000 110.833 400.000 55.417 L 400.000 0.000 200.000 0.000 L 0.000 0.000 0.000 55.417 M221.167 4.472 C 221.602 4.669,222.476 4.857,223.250 4.918 C 224.832 5.045,225.327 5.238,225.210 5.684 C 225.116 6.047,225.154 6.039,223.500 6.020 C 222.813 6.013,221.950 6.063,221.583 6.133 L 220.917 6.260 221.458 6.583 C 221.756 6.760,222.000 6.956,222.000 7.017 C 222.000 7.079,222.267 7.180,222.593 7.241 C 222.919 7.302,223.322 7.489,223.490 7.657 C 223.658 7.824,224.060 8.049,224.384 8.156 C 224.708 8.263,225.065 8.460,225.176 8.595 C 225.288 8.729,225.643 8.965,225.966 9.118 C 227.295 9.749,230.030 12.940,230.270 14.141 C 230.328 14.430,230.438 14.667,230.515 14.667 C 230.823 14.667,231.038 15.367,230.854 15.771 C 230.575 16.383,230.576 16.383,228.901 14.875 C 228.672 14.669,228.427 14.500,228.356 14.500 C 228.285 14.500,227.977 14.277,227.672 14.005 C 226.838 13.260,226.602 13.832,227.346 14.797 C 227.507 15.006,227.691 15.484,227.754 15.860 C 227.818 16.235,228.004 16.777,228.167 17.063 C 228.331 17.349,228.517 17.958,228.581 18.417 C 228.645 18.875,228.771 19.339,228.860 19.447 C 229.208 19.870,229.362 22.111,229.351 26.583 C 229.341 30.372,229.384 31.328,229.580 31.667 C 229.713 31.896,229.970 32.399,230.152 32.784 C 230.573 33.678,232.715 35.768,233.339 35.893 C 233.597 35.944,233.945 36.130,234.112 36.305 C 234.280 36.480,234.642 36.739,234.917 36.881 L 235.417 37.140 234.925 37.328 C 234.542 37.475,234.267 37.464,233.675 37.275 C 233.258 37.142,232.525 36.952,232.046 36.853 C 231.567 36.753,230.893 36.521,230.549 36.336 C 230.204 36.151,229.857 36.000,229.779 36.000 C 229.701 36.000,229.229 35.652,228.731 35.226 C 228.233 34.801,227.778 34.499,227.721 34.556 C 227.453 34.825,227.777 39.894,228.104 40.533 C 228.230 40.781,228.413 41.356,228.511 41.811 C 228.608 42.266,228.833 42.923,229.011 43.271 C 229.188 43.619,229.333 44.032,229.333 44.189 C 229.333 44.346,229.511 44.686,229.727 44.946 C 229.944 45.205,230.175 45.588,230.240 45.797 C 230.306 46.006,230.522 46.355,230.721 46.572 C 231.334 47.241,232.296 48.240,232.529 48.450 C 232.650 48.561,232.847 48.767,232.965 48.909 C 233.083 49.051,233.350 49.167,233.558 49.167 C 234.047 49.167,234.585 49.561,234.432 49.808 C 234.267 50.075,232.811 50.049,232.412 49.771 C 232.231 49.645,231.767 49.489,231.380 49.424 C 230.993 49.359,230.493 49.161,230.268 48.985 C 230.044 48.808,229.611 48.615,229.305 48.556 C 229.000 48.497,228.538 48.273,228.279 48.058 C 228.020 47.843,227.682 47.667,227.529 47.666 C 227.375 47.666,227.032 47.479,226.766 47.250 C 226.499 47.021,226.210 46.833,226.123 46.833 C 226.036 46.833,225.752 46.665,225.493 46.458 C 225.233 46.252,224.665 45.821,224.230 45.500 C 223.246 44.773,220.995 42.463,220.687 41.864 C 220.561 41.618,220.355 41.298,220.229 41.154 C 219.597 40.428,218.443 37.691,218.263 36.493 C 218.202 36.084,218.011 35.412,217.840 35.000 C 217.669 34.587,217.439 34.006,217.328 33.708 C 216.766 32.200,216.294 33.644,216.441 36.421 C 216.531 38.121,216.504 38.509,216.265 38.972 C 215.705 40.053,215.720 41.076,216.303 41.740 C 216.585 42.063,216.867 42.591,216.927 42.915 C 216.988 43.239,217.103 43.544,217.184 43.594 C 217.264 43.643,217.210 43.866,217.064 44.089 C 216.714 44.623,216.896 46.731,217.340 47.297 C 217.505 47.506,217.688 47.993,217.749 48.380 C 217.809 48.767,218.059 49.477,218.304 49.958 L 218.750 50.833 219.605 50.833 C 220.669 50.833,220.970 51.111,220.528 51.685 C 219.878 52.528,220.805 53.743,222.443 54.195 C 222.744 54.278,223.209 54.531,223.477 54.756 C 223.745 54.982,224.040 55.167,224.132 55.167 C 224.817 55.167,228.067 58.369,229.056 60.018 C 230.574 62.550,230.833 63.067,230.833 63.562 C 230.833 64.549,231.364 66.642,231.861 67.617 C 232.242 68.364,230.890 69.507,228.581 70.392 C 227.941 70.637,227.117 70.987,226.750 71.169 C 226.383 71.352,225.778 71.501,225.405 71.500 C 223.194 71.499,222.831 72.090,222.845 75.656 C 222.852 77.648,222.816 77.920,222.440 78.713 C 221.661 80.356,221.659 82.288,222.436 81.993 C 222.667 81.905,223.267 81.833,223.770 81.833 C 224.809 81.833,226.077 81.557,226.609 81.214 C 226.806 81.087,227.594 80.913,228.359 80.827 C 229.124 80.741,230.273 80.520,230.913 80.336 C 231.553 80.151,232.265 80.000,232.496 79.999 C 232.728 79.998,233.108 79.898,233.341 79.776 C 235.518 78.640,237.500 79.546,237.500 81.676 C 237.500 83.498,237.342 83.777,236.185 83.996 C 235.671 84.094,234.650 84.317,233.917 84.493 C 233.183 84.668,232.208 84.861,231.750 84.920 C 231.292 84.979,230.580 85.175,230.168 85.356 C 229.756 85.536,229.006 85.710,228.501 85.743 C 227.465 85.810,226.426 86.030,225.354 86.409 C 224.953 86.551,224.402 86.667,224.130 86.667 C 223.857 86.667,223.248 86.773,222.776 86.904 C 222.303 87.034,221.560 87.188,221.125 87.247 C 220.584 87.320,220.333 87.432,220.333 87.601 C 220.333 87.737,220.146 88.036,219.917 88.265 C 219.688 88.494,219.500 88.747,219.500 88.827 C 219.500 89.120,218.221 90.333,217.907 90.339 C 217.729 90.342,217.438 90.454,217.260 90.589 C 216.841 90.905,216.098 90.902,215.833 90.583 C 215.462 90.136,215.333 90.316,215.333 91.279 C 215.333 91.893,215.423 92.322,215.588 92.506 C 215.878 92.825,216.164 94.348,216.166 95.573 C 216.166 96.184,216.259 96.493,216.525 96.777 C 216.830 97.101,216.896 97.415,216.965 98.871 C 217.027 100.191,217.116 100.673,217.352 100.975 C 217.520 101.191,217.702 101.603,217.756 101.892 C 217.847 102.379,217.903 102.417,218.536 102.417 C 219.164 102.417,219.249 102.472,219.608 103.114 L 219.997 103.811 219.560 104.156 C 219.319 104.345,218.904 104.500,218.637 104.500 C 218.371 104.500,217.950 104.642,217.702 104.816 C 216.047 105.974,215.030 104.949,214.745 101.833 C 214.677 101.082,214.528 100.466,214.371 100.290 C 214.195 100.091,214.059 99.391,213.948 98.123 C 213.832 96.794,213.700 96.142,213.495 95.877 C 213.336 95.672,213.154 95.091,213.091 94.586 C 212.969 93.612,212.498 93.317,212.008 93.908 C 211.898 94.040,211.387 94.236,210.872 94.343 C 210.358 94.449,209.745 94.671,209.510 94.836 C 209.275 95.000,208.675 95.184,208.175 95.244 C 207.565 95.318,207.195 95.456,207.048 95.667 C 206.915 95.857,206.522 96.026,206.051 96.097 C 205.623 96.161,205.043 96.346,204.761 96.507 C 204.480 96.669,203.997 96.854,203.688 96.918 C 203.379 96.983,202.891 97.169,202.604 97.333 C 202.318 97.496,201.792 97.681,201.436 97.743 C 201.079 97.806,200.592 97.994,200.352 98.162 C 200.113 98.329,199.546 98.512,199.093 98.568 C 198.616 98.626,198.121 98.808,197.917 99.000 C 197.717 99.188,197.208 99.378,196.741 99.440 C 196.287 99.500,195.727 99.681,195.494 99.843 C 195.262 100.005,194.779 100.193,194.421 100.260 C 194.062 100.327,193.540 100.514,193.260 100.675 C 192.979 100.837,192.423 101.021,192.024 101.085 C 191.625 101.149,191.168 101.332,191.008 101.492 C 190.838 101.662,190.319 101.828,189.747 101.896 C 189.069 101.975,188.707 102.106,188.551 102.328 C 188.418 102.519,188.032 102.691,187.591 102.758 C 187.186 102.818,186.499 103.048,186.066 103.267 C 185.632 103.487,185.144 103.667,184.981 103.667 C 184.819 103.667,184.438 103.810,184.135 103.984 C 183.831 104.159,183.257 104.354,182.857 104.418 C 182.458 104.483,182.001 104.666,181.842 104.825 C 181.671 104.995,181.152 105.162,180.580 105.229 C 179.903 105.309,179.540 105.440,179.385 105.662 C 179.247 105.858,178.860 106.026,178.377 106.098 C 177.945 106.163,177.260 106.392,176.855 106.608 C 176.449 106.824,175.980 107.000,175.813 107.000 C 175.645 107.000,175.262 107.150,174.962 107.333 C 174.151 107.827,173.460 107.761,172.603 107.107 C 171.521 106.281,171.338 106.128,170.830 105.625 C 170.575 105.373,170.284 105.167,170.185 105.167 C 170.085 105.167,169.909 105.017,169.795 104.833 C 169.680 104.650,169.493 104.500,169.379 104.500 C 169.266 104.500,168.965 104.316,168.711 104.090 C 167.946 103.410,167.271 102.894,166.875 102.686 C 166.669 102.577,166.500 102.397,166.499 102.286 C 166.498 102.174,166.292 101.954,166.041 101.796 C 165.085 101.197,164.904 101.072,164.401 100.667 C 164.117 100.438,163.643 100.063,163.348 99.833 C 161.265 98.217,161.140 97.932,161.923 96.583 C 162.587 95.439,163.449 93.756,163.577 93.353 C 163.644 93.141,163.845 92.822,164.022 92.645 C 164.199 92.468,164.388 92.102,164.442 91.832 C 164.496 91.562,164.644 91.255,164.770 91.150 C 164.897 91.045,165.000 90.894,165.000 90.813 C 165.000 90.585,166.001 88.523,166.225 88.291 C 166.335 88.177,166.620 87.708,166.859 87.250 C 168.901 83.321,167.844 83.785,175.750 83.343 C 180.668 83.069,181.335 82.829,180.898 81.492 C 180.643 80.711,180.632 80.441,180.810 79.213 C 180.921 78.447,180.955 77.729,180.886 77.618 C 180.818 77.507,180.713 76.054,180.653 74.388 C 180.555 71.641,180.512 71.318,180.189 70.907 C 179.704 70.290,179.710 69.202,180.202 68.576 C 181.206 67.300,180.784 64.555,179.522 64.153 C 178.812 63.927,177.527 63.228,175.967 62.221 C 175.353 61.824,174.821 61.500,174.784 61.500 C 174.067 61.500,172.308 58.781,172.840 58.496 C 173.135 58.339,174.147 56.429,174.419 55.518 C 174.522 55.172,175.300 53.628,175.898 52.583 C 176.443 51.631,176.870 51.126,178.246 49.805 L 179.750 48.361 179.695 39.722 C 179.638 30.627,179.719 29.160,180.321 28.395 C 180.511 28.153,180.668 27.721,180.669 27.436 C 180.670 27.150,180.781 26.729,180.915 26.500 C 181.048 26.271,181.272 25.843,181.412 25.548 C 181.551 25.254,181.895 24.692,182.176 24.298 C 182.456 23.905,182.839 23.340,183.026 23.042 C 183.213 22.744,183.421 22.500,183.487 22.500 C 183.553 22.500,183.904 22.136,184.266 21.691 C 185.656 19.983,187.228 18.902,188.783 18.586 C 189.076 18.526,189.593 18.257,189.931 17.989 C 190.269 17.720,190.723 17.500,190.940 17.500 C 191.157 17.500,191.614 17.350,191.956 17.167 C 192.298 16.984,192.841 16.790,193.164 16.737 C 193.486 16.684,194.030 16.535,194.373 16.405 C 194.762 16.259,196.062 16.129,197.827 16.060 C 201.059 15.932,201.129 15.901,201.482 14.449 C 201.589 14.008,201.824 13.372,202.005 13.035 C 202.185 12.697,202.333 12.327,202.333 12.211 C 202.333 12.095,202.479 11.854,202.658 11.676 C 202.836 11.497,203.100 11.124,203.244 10.846 C 203.540 10.273,205.503 8.231,206.229 7.740 C 206.493 7.562,206.905 7.261,207.146 7.072 C 207.722 6.617,209.155 5.833,209.409 5.833 C 209.520 5.833,209.979 5.646,210.430 5.417 C 210.893 5.182,211.765 4.937,212.433 4.853 C 213.084 4.772,213.787 4.614,213.995 4.503 C 215.121 3.900,219.860 3.880,221.167 4.472 M188.272 79.917 C 187.651 81.227,187.660 82.228,188.292 82.100 C 189.195 81.917,192.981 81.682,196.567 81.586 C 201.066 81.466,202.154 81.150,198.833 80.928 C 196.662 80.784,191.736 79.971,191.160 79.663 C 191.004 79.579,190.510 79.431,190.063 79.333 C 189.616 79.235,189.128 79.118,188.980 79.073 C 188.783 79.013,188.591 79.241,188.272 79.917 M208.789 79.348 C 208.444 79.429,207.994 79.605,207.789 79.738 C 207.584 79.870,206.742 80.073,205.917 80.189 C 203.957 80.463,204.501 80.628,207.440 80.650 L 209.631 80.667 209.739 80.236 C 209.852 79.786,209.727 79.155,209.530 79.183 C 209.468 79.193,209.134 79.267,208.789 79.348 " stroke="none" fill="#fbfbfb" fill-rule="evenodd"></path><path id="path1" d="M197.500 33.321 C 195.952 33.874,194.097 34.886,193.293 35.613 C 193.086 35.801,192.797 36.021,192.650 36.102 C 192.190 36.356,190.821 37.529,189.341 38.937 C 187.382 40.800,186.667 41.051,186.667 39.878 C 186.667 39.754,186.517 39.431,186.333 39.160 C 186.150 38.889,185.850 38.445,185.667 38.173 C 185.483 37.902,185.333 37.616,185.333 37.537 C 185.333 37.458,185.115 37.136,184.848 36.822 C 184.581 36.507,184.211 36.063,184.026 35.833 C 181.902 33.210,180.833 33.265,180.833 35.998 C 180.833 38.364,181.786 40.377,184.028 42.750 L 184.973 43.750 185.152 48.000 C 185.455 55.171,185.507 57.094,185.394 56.833 C 185.281 56.573,182.849 54.124,182.220 53.638 C 180.938 52.646,180.408 53.157,180.859 54.949 C 181.441 57.262,186.309 60.110,190.917 60.834 C 191.558 60.935,192.496 61.145,193.000 61.300 C 194.223 61.677,202.470 61.713,203.667 61.347 C 204.079 61.221,205.084 60.997,205.899 60.850 C 207.487 60.564,207.791 60.350,207.612 59.638 C 207.454 59.010,206.507 57.902,205.667 57.364 C 204.617 56.692,204.396 56.385,204.173 55.295 C 203.946 54.185,203.799 54.042,203.253 54.399 C 203.034 54.543,202.493 54.740,202.052 54.836 C 201.611 54.933,201.047 55.159,200.798 55.339 C 200.550 55.519,200.225 55.667,200.076 55.667 C 199.928 55.667,199.268 55.895,198.611 56.175 C 197.954 56.454,197.042 56.835,196.583 57.022 C 195.595 57.426,194.083 58.116,193.500 58.431 C 191.794 59.352,191.907 59.591,191.769 54.751 C 191.644 50.393,191.455 47.640,191.152 45.783 C 190.895 44.205,191.090 43.773,192.225 43.402 C 192.697 43.248,193.158 43.067,193.250 43.000 C 193.342 42.932,193.717 42.784,194.083 42.670 C 194.450 42.556,194.993 42.325,195.289 42.155 C 195.586 41.986,196.131 41.766,196.501 41.666 C 196.871 41.567,197.445 41.301,197.777 41.076 C 198.108 40.851,198.441 40.667,198.517 40.667 C 198.721 40.667,201.131 38.991,201.754 38.417 C 205.107 35.321,202.072 31.685,197.500 33.321 M189.875 66.161 C 189.230 66.439,189.335 67.739,190.031 68.099 C 190.576 68.381,192.533 68.372,192.996 68.086 C 193.202 67.959,193.167 66.445,192.954 66.231 C 192.778 66.056,190.253 65.998,189.875 66.161 M195.906 66.936 C 194.261 67.313,194.213 71.572,195.847 72.200 C 196.613 72.494,200.253 72.550,200.784 72.275 C 201.578 71.865,202.031 69.775,201.616 68.449 C 201.283 67.388,197.877 66.486,195.906 66.936 M181.167 69.979 L 181.167 71.292 181.688 71.396 C 182.937 71.646,183.000 71.603,183.000 70.500 C 183.000 69.930,182.927 69.500,182.830 69.500 C 182.736 69.500,182.574 69.313,182.470 69.083 C 182.322 68.760,182.155 68.667,181.723 68.667 L 181.167 68.667 181.167 69.979 M209.115 69.134 C 208.578 69.694,208.574 69.748,209.001 70.546 C 209.228 70.970,209.381 71.705,209.477 72.836 C 209.583 74.092,209.695 74.588,209.930 74.848 C 210.175 75.119,210.262 75.547,210.330 76.830 C 210.396 78.079,210.487 78.544,210.714 78.794 C 210.878 78.974,211.088 79.598,211.182 80.180 C 211.276 80.762,211.416 81.316,211.494 81.411 C 211.699 81.660,212.000 83.425,212.000 84.379 C 212.000 84.934,212.103 85.329,212.320 85.605 C 212.575 85.929,212.642 86.292,212.650 87.380 C 212.661 89.148,212.810 90.103,213.172 90.739 C 213.332 91.020,213.514 91.728,213.576 92.313 C 213.648 93.001,213.815 93.547,214.047 93.862 C 214.317 94.226,214.422 94.648,214.468 95.549 C 214.511 96.384,214.609 96.812,214.791 96.954 C 215.091 97.188,215.309 98.320,215.323 99.715 C 215.331 100.421,215.418 100.771,215.648 101.019 C 216.010 101.407,216.167 102.049,216.166 103.146 L 216.166 103.917 217.291 103.840 C 217.978 103.794,218.202 103.741,217.866 103.704 C 217.479 103.662,217.261 103.524,217.131 103.239 C 217.030 103.016,216.891 102.833,216.823 102.833 C 216.603 102.833,216.333 101.806,216.333 100.969 C 216.333 100.521,216.228 99.989,216.100 99.786 C 215.812 99.330,215.500 97.875,215.500 96.985 C 215.500 96.582,215.369 96.142,215.167 95.868 C 214.913 95.524,214.810 95.041,214.732 93.833 C 214.657 92.657,214.528 92.038,214.232 91.426 C 213.327 89.555,214.269 87.940,215.500 89.250 C 215.934 89.712,217.202 89.847,217.450 89.457 C 217.523 89.342,217.856 89.045,218.189 88.797 C 218.654 88.450,218.814 88.198,218.874 87.714 C 218.974 86.913,218.945 86.888,218.403 87.314 C 217.460 88.056,215.765 87.026,214.899 85.185 L 214.568 84.482 214.354 85.315 C 213.957 86.865,213.440 86.764,213.166 85.082 C 213.081 84.557,212.857 83.809,212.668 83.420 C 212.479 83.030,212.278 82.195,212.220 81.564 C 212.162 80.933,212.001 80.242,211.863 80.029 C 211.711 79.794,211.559 78.955,211.476 77.893 C 211.373 76.580,211.261 76.043,211.025 75.744 C 210.787 75.442,210.681 74.925,210.589 73.636 C 210.497 72.340,210.392 71.832,210.151 71.525 C 209.628 70.861,209.707 69.455,210.292 69.019 L 210.750 68.677 210.156 68.672 C 209.719 68.668,209.444 68.790,209.115 69.134 M189.950 69.278 C 189.361 69.378,189.094 70.000,189.289 70.825 L 189.428 71.417 190.812 71.500 C 192.401 71.596,192.576 71.494,192.576 70.481 C 192.576 69.420,191.644 68.993,189.950 69.278 M203.605 71.356 C 203.512 72.619,203.521 73.401,203.631 73.596 C 203.852 73.992,203.950 72.606,203.832 70.750 L 203.747 69.417 203.605 71.356 M212.760 72.839 C 212.701 73.340,212.712 74.299,212.785 74.970 L 212.917 76.190 214.000 76.743 C 216.852 78.198,220.929 78.711,221.442 77.680 C 221.552 77.458,221.760 77.211,221.904 77.130 C 222.088 77.028,222.167 76.736,222.167 76.158 C 222.167 75.263,222.043 75.178,221.333 75.583 C 220.782 75.899,218.849 75.909,218.406 75.599 C 218.222 75.470,217.722 75.312,217.294 75.248 C 216.867 75.184,216.274 74.952,215.976 74.732 C 215.679 74.513,215.338 74.333,215.219 74.333 C 215.100 74.333,214.909 74.183,214.795 74.000 C 214.680 73.817,214.504 73.667,214.404 73.667 C 214.202 73.667,213.357 72.786,213.058 72.263 C 212.891 71.971,212.853 72.044,212.760 72.839 M189.389 73.352 C 188.830 73.910,189.312 74.624,190.333 74.752 C 191.536 74.901,192.533 75.119,193.269 75.394 C 194.124 75.713,199.376 75.856,199.664 75.569 C 200.098 75.136,199.572 74.539,198.577 74.332 C 198.059 74.224,197.398 74.039,197.109 73.920 C 196.820 73.801,195.871 73.650,195.000 73.586 C 194.129 73.521,192.854 73.363,192.167 73.234 C 190.416 72.906,189.809 72.932,189.389 73.352 M202.762 75.111 C 202.704 75.264,202.733 75.467,202.828 75.561 C 202.946 75.680,203.000 75.593,203.000 75.283 C 203.000 74.769,202.917 74.709,202.762 75.111 M200.750 77.000 C 200.472 77.119,200.509 77.145,200.968 77.155 C 201.296 77.162,201.478 77.099,201.417 77.000 C 201.297 76.806,201.202 76.806,200.750 77.000 M186.952 79.276 C 186.188 81.368,183.069 82.527,182.253 81.024 C 182.016 80.588,182.013 80.592,182.007 81.375 L 182.000 82.167 184.071 82.167 L 186.141 82.167 186.661 81.647 C 187.152 81.155,187.178 81.066,187.132 80.022 C 187.098 79.246,187.044 79.024,186.952 79.276 " stroke="none" fill="#333539" fill-rule="evenodd"></path><path id="path2" d="M214.739 4.751 C 214.459 4.875,213.610 5.060,212.853 5.164 C 212.090 5.268,211.240 5.496,210.947 5.676 C 210.655 5.853,210.318 5.999,210.198 5.999 C 209.837 6.000,207.969 6.982,207.167 7.593 C 206.754 7.907,206.233 8.295,206.008 8.456 C 204.200 9.752,202.127 12.952,201.745 15.037 C 201.612 15.762,201.756 15.856,203.417 16.131 C 204.682 16.341,206.016 16.721,207.083 17.176 C 207.897 17.523,208.133 17.641,209.338 18.310 C 210.168 18.770,212.140 20.633,213.012 21.781 C 213.418 22.314,213.788 22.787,213.836 22.833 C 214.205 23.186,215.831 27.006,215.839 27.537 C 215.842 27.746,215.991 28.329,216.170 28.833 C 216.349 29.337,216.544 30.289,216.604 30.947 C 216.696 31.946,216.793 32.230,217.190 32.666 C 217.452 32.952,217.667 33.277,217.667 33.388 C 217.667 33.498,217.812 33.859,217.989 34.189 C 218.166 34.520,218.397 35.269,218.503 35.853 C 218.609 36.438,218.759 36.993,218.836 37.086 C 218.912 37.178,219.065 37.628,219.175 38.086 C 219.285 38.543,219.494 39.104,219.639 39.333 C 219.784 39.563,220.056 40.025,220.243 40.362 C 221.386 42.417,223.487 44.578,225.929 46.211 C 226.853 46.828,227.687 47.333,227.782 47.333 C 227.877 47.333,228.134 47.472,228.353 47.642 C 228.571 47.812,229.050 48.047,229.417 48.163 C 229.783 48.279,230.308 48.505,230.583 48.665 C 231.806 49.377,232.704 49.166,231.888 48.358 C 230.818 47.301,229.833 46.137,229.833 45.931 C 229.833 45.811,229.695 45.533,229.525 45.314 C 228.233 43.649,227.475 40.433,227.048 34.805 L 226.964 33.694 227.524 33.898 C 227.831 34.010,228.412 34.414,228.813 34.795 C 229.214 35.176,229.814 35.577,230.146 35.685 C 230.478 35.794,231.011 36.021,231.331 36.191 C 231.944 36.517,232.766 36.591,233.141 36.353 C 233.309 36.246,233.267 36.186,232.974 36.112 C 232.017 35.869,230.320 34.085,229.540 32.500 L 228.924 31.250 228.967 26.833 C 229.011 22.349,228.526 18.251,227.856 17.444 C 227.757 17.325,227.591 16.820,227.486 16.322 C 227.381 15.824,227.189 15.296,227.060 15.148 C 226.465 14.472,226.474 13.167,227.072 13.167 C 227.197 13.167,227.835 13.581,228.491 14.088 C 229.147 14.595,229.759 14.962,229.852 14.905 C 230.233 14.670,229.382 12.910,228.382 11.867 C 228.267 11.748,228.116 11.556,228.045 11.440 C 227.911 11.221,226.142 9.744,225.084 8.969 C 224.748 8.722,224.249 8.471,223.975 8.411 C 223.701 8.351,223.438 8.198,223.389 8.072 C 223.341 7.945,222.874 7.722,222.352 7.575 C 221.814 7.424,221.118 7.068,220.744 6.752 L 220.083 6.194 220.561 6.010 C 220.824 5.909,221.715 5.757,222.540 5.671 C 224.485 5.470,224.492 5.417,222.602 5.203 C 221.737 5.104,220.802 4.906,220.523 4.762 C 219.856 4.417,215.519 4.409,214.739 4.751 " stroke="none" fill="#cbb45c" fill-rule="evenodd"></path><path id="path3" d="M186.928 20.149 C 186.865 20.250,186.686 20.333,186.530 20.333 C 186.374 20.333,186.153 20.483,186.039 20.667 C 185.924 20.850,185.719 21.000,185.582 21.000 C 185.445 21.000,185.333 21.075,185.333 21.166 C 185.333 21.257,184.958 21.715,184.500 22.183 C 184.042 22.651,183.667 23.065,183.667 23.102 C 183.667 23.196,182.289 25.229,182.156 25.333 C 182.097 25.379,181.959 25.692,181.849 26.028 C 181.739 26.365,181.549 26.723,181.426 26.825 C 181.303 26.927,181.155 27.330,181.097 27.719 C 181.038 28.109,180.824 28.688,180.620 29.005 L 180.250 29.583 180.250 39.000 C 180.250 44.179,180.197 48.498,180.133 48.597 C 179.862 49.011,179.946 54.331,180.228 54.642 C 180.375 54.805,180.547 55.196,180.610 55.511 C 180.737 56.151,181.903 57.612,182.417 57.774 C 182.600 57.832,182.915 58.057,183.117 58.273 C 183.319 58.490,183.597 58.667,183.734 58.667 C 183.872 58.667,184.172 58.854,184.402 59.083 C 184.631 59.313,184.992 59.500,185.205 59.500 C 185.418 59.500,185.716 59.645,185.868 59.821 C 186.028 60.008,186.478 60.193,186.945 60.263 C 187.387 60.329,187.940 60.525,188.174 60.699 C 188.465 60.914,188.995 61.042,189.842 61.103 C 190.664 61.162,191.308 61.314,191.750 61.554 C 193.092 62.284,204.718 62.158,205.341 61.408 C 205.475 61.246,205.877 61.166,206.562 61.164 C 209.217 61.158,209.004 59.553,206.000 56.934 C 205.862 56.814,205.551 56.589,205.309 56.433 C 203.771 55.449,204.173 52.957,205.941 52.511 C 206.384 52.400,206.833 52.236,206.939 52.148 C 207.046 52.060,207.984 51.885,209.025 51.759 C 210.065 51.634,211.367 51.412,211.917 51.267 C 212.467 51.122,213.864 50.937,215.022 50.856 C 216.181 50.776,217.221 50.653,217.334 50.583 C 217.637 50.395,217.411 48.815,216.932 47.774 C 216.715 47.302,216.489 46.467,216.429 45.918 C 216.370 45.369,216.136 44.515,215.910 44.021 L 215.498 43.123 214.680 44.365 C 213.812 45.680,211.606 47.969,210.932 48.252 C 210.711 48.345,210.392 48.540,210.223 48.686 C 209.232 49.541,205.306 51.167,203.417 51.504 C 201.278 51.887,199.622 52.040,198.805 51.931 C 198.316 51.866,197.504 51.758,197.000 51.690 C 194.430 51.346,192.212 48.887,191.862 45.994 C 191.646 44.210,191.868 43.749,193.017 43.597 C 193.446 43.540,193.974 43.356,194.190 43.187 C 194.406 43.019,194.866 42.830,195.212 42.766 C 195.559 42.702,195.932 42.504,196.044 42.325 C 196.157 42.145,196.433 41.999,196.665 41.998 C 197.361 41.994,197.817 41.813,197.916 41.503 C 197.976 41.314,198.247 41.170,198.666 41.103 C 199.077 41.037,199.389 40.873,199.501 40.666 C 199.598 40.483,199.808 40.333,199.967 40.333 C 200.351 40.333,201.455 39.385,203.218 37.541 C 203.815 36.918,203.849 34.833,203.272 34.256 C 203.035 34.020,202.762 33.678,202.665 33.496 C 202.568 33.315,202.390 33.167,202.270 33.167 C 202.150 33.167,201.834 32.975,201.568 32.741 C 200.965 32.212,197.985 32.171,197.608 32.687 C 197.500 32.836,197.086 33.013,196.688 33.080 C 196.290 33.147,195.823 33.344,195.649 33.518 C 195.475 33.691,195.231 33.833,195.106 33.833 C 194.878 33.833,193.912 34.502,193.202 35.152 C 192.993 35.343,192.750 35.500,192.663 35.500 C 192.468 35.500,190.378 37.224,189.910 37.770 C 189.724 37.988,189.480 38.167,189.369 38.167 C 189.258 38.167,189.167 38.236,189.167 38.320 C 189.167 38.623,187.902 39.781,187.484 39.861 C 187.080 39.938,187.044 39.886,186.832 38.930 C 186.709 38.373,186.478 37.617,186.319 37.250 C 186.159 36.883,185.944 35.871,185.841 35.000 C 185.738 34.129,185.586 33.154,185.503 32.833 C 185.257 31.875,185.141 28.501,185.311 27.250 C 185.632 24.900,186.037 23.071,186.348 22.564 C 186.523 22.278,186.667 21.857,186.667 21.628 C 186.667 21.399,186.811 21.028,186.987 20.804 C 187.181 20.557,187.256 20.310,187.175 20.180 C 187.081 20.028,187.008 20.019,186.928 20.149 M201.417 33.296 C 203.673 34.527,203.805 36.524,201.754 38.417 C 201.131 38.991,198.721 40.667,198.517 40.667 C 198.441 40.667,198.108 40.851,197.777 41.076 C 197.445 41.301,196.871 41.567,196.501 41.666 C 196.131 41.766,195.586 41.986,195.289 42.155 C 194.993 42.325,194.450 42.556,194.083 42.670 C 193.717 42.784,193.342 42.932,193.250 43.000 C 193.158 43.067,192.697 43.248,192.225 43.402 C 191.090 43.773,190.895 44.205,191.152 45.783 C 191.455 47.640,191.644 50.393,191.769 54.751 C 191.894 59.147,191.923 59.273,192.719 58.850 C 192.919 58.744,193.271 58.555,193.500 58.431 C 194.083 58.116,195.595 57.426,196.583 57.022 C 197.042 56.835,197.954 56.454,198.611 56.175 C 199.268 55.895,199.928 55.667,200.076 55.667 C 200.225 55.667,200.550 55.519,200.798 55.339 C 201.047 55.159,201.611 54.933,202.052 54.836 C 202.493 54.740,203.034 54.543,203.253 54.399 C 203.799 54.042,203.946 54.185,204.173 55.295 C 204.396 56.385,204.617 56.692,205.667 57.364 C 206.507 57.902,207.454 59.010,207.612 59.638 C 207.791 60.350,207.487 60.564,205.899 60.850 C 205.084 60.997,204.079 61.221,203.667 61.347 C 202.470 61.713,194.223 61.677,193.000 61.300 C 192.496 61.145,191.558 60.935,190.917 60.834 C 187.598 60.313,184.043 58.700,182.238 56.898 C 180.087 54.749,180.071 51.975,182.220 53.638 C 182.849 54.124,185.281 56.573,185.394 56.833 C 185.507 57.094,185.455 55.171,185.152 48.000 L 184.973 43.750 184.028 42.750 C 181.786 40.377,180.833 38.364,180.833 35.998 C 180.833 33.265,181.902 33.210,184.026 35.833 C 184.211 36.063,184.581 36.507,184.848 36.822 C 185.115 37.136,185.333 37.458,185.333 37.537 C 185.333 37.616,185.483 37.902,185.667 38.173 C 185.850 38.445,186.150 38.889,186.333 39.160 C 186.517 39.431,186.667 39.754,186.667 39.878 C 186.667 41.051,187.382 40.800,189.341 38.937 C 190.821 37.529,192.190 36.356,192.650 36.102 C 192.797 36.021,193.086 35.801,193.293 35.613 C 195.650 33.479,199.657 32.336,201.417 33.296 M208.607 61.782 C 208.276 62.113,208.741 64.267,209.498 65.917 C 210.438 67.965,210.407 68.158,209.143 68.164 C 207.967 68.170,207.660 70.673,208.582 72.750 C 208.704 73.025,208.886 73.835,208.986 74.551 C 209.085 75.266,209.271 76.053,209.398 76.301 C 209.524 76.548,209.683 77.237,209.750 77.833 C 209.818 78.429,210.025 79.217,210.212 79.583 C 210.423 79.997,210.603 80.806,210.688 81.716 C 210.763 82.523,210.937 83.385,211.076 83.633 C 211.401 84.213,211.649 86.178,211.453 86.618 C 211.300 86.961,210.813 87.108,208.526 87.504 C 207.944 87.605,207.269 87.764,207.026 87.859 C 206.782 87.953,205.852 88.134,204.958 88.261 C 204.064 88.388,203.104 88.610,202.825 88.754 C 202.546 88.899,201.694 89.088,200.932 89.174 C 200.170 89.261,199.237 89.441,198.859 89.574 C 198.481 89.708,197.564 89.900,196.820 90.002 C 196.077 90.104,195.290 90.255,195.072 90.337 C 194.855 90.420,194.005 90.605,193.184 90.747 C 192.363 90.889,191.403 91.108,191.050 91.232 C 190.697 91.357,189.848 91.513,189.163 91.579 C 188.477 91.645,187.579 91.847,187.167 92.028 C 186.754 92.209,185.759 92.426,184.956 92.511 C 184.152 92.595,183.241 92.771,182.930 92.900 C 182.620 93.030,181.815 93.220,181.141 93.322 C 180.468 93.425,179.542 93.613,179.083 93.741 C 178.625 93.868,177.720 94.053,177.071 94.150 C 176.423 94.247,175.590 94.434,175.220 94.564 C 174.850 94.695,174.031 94.854,173.399 94.919 C 172.767 94.983,171.912 95.182,171.500 95.362 C 171.088 95.541,170.131 95.759,169.373 95.846 C 168.616 95.933,167.716 96.112,167.373 96.245 C 167.031 96.377,166.262 96.567,165.667 96.667 C 164.118 96.925,162.147 97.523,162.056 97.762 C 161.952 98.033,162.865 98.892,164.347 99.917 C 165.010 100.375,165.912 101.106,166.353 101.542 C 166.793 101.977,167.229 102.333,167.320 102.333 C 167.412 102.333,167.886 102.652,168.375 103.042 C 168.863 103.431,169.597 104.005,170.006 104.318 C 170.415 104.630,170.900 105.024,171.083 105.194 C 171.267 105.364,171.952 105.907,172.605 106.401 L 173.794 107.299 174.255 106.997 C 174.508 106.831,174.986 106.645,175.316 106.583 C 175.646 106.522,176.142 106.336,176.417 106.171 C 176.692 106.005,177.313 105.787,177.798 105.685 C 178.282 105.584,178.882 105.358,179.131 105.183 C 179.380 105.008,179.883 104.813,180.250 104.750 C 180.617 104.687,181.104 104.532,181.333 104.405 C 181.787 104.153,183.282 103.619,184.552 103.255 C 184.993 103.128,185.519 102.917,185.720 102.785 C 185.922 102.653,186.495 102.457,186.995 102.350 C 187.494 102.243,188.019 102.052,188.160 101.925 C 188.301 101.799,188.829 101.583,189.333 101.444 C 189.838 101.306,190.850 100.956,191.583 100.667 C 192.317 100.378,193.260 100.044,193.680 99.927 C 194.099 99.809,194.629 99.590,194.857 99.440 C 195.085 99.291,195.642 99.123,196.094 99.067 C 196.547 99.012,197.116 98.827,197.360 98.656 C 197.604 98.485,198.166 98.261,198.610 98.157 C 199.054 98.053,199.717 97.832,200.083 97.666 C 201.269 97.128,202.999 96.500,203.295 96.499 C 203.454 96.498,203.807 96.350,204.081 96.170 C 204.354 95.990,204.917 95.795,205.331 95.737 C 205.745 95.679,206.346 95.460,206.667 95.251 C 206.987 95.041,207.541 94.819,207.898 94.756 C 208.254 94.694,208.815 94.498,209.145 94.322 C 209.475 94.145,209.868 94.000,210.019 94.000 C 210.170 94.000,210.714 93.807,211.228 93.572 C 213.035 92.745,213.651 93.574,214.243 97.630 C 214.381 98.572,214.567 99.480,214.656 99.647 C 214.746 99.815,214.901 100.469,215.001 101.101 C 215.480 104.135,215.935 104.959,216.937 104.606 C 217.295 104.479,217.901 104.323,218.284 104.258 C 219.206 104.103,219.430 103.827,219.132 103.217 C 218.973 102.892,218.804 102.769,218.577 102.813 C 218.397 102.847,218.150 102.885,218.029 102.896 C 217.573 102.938,216.862 101.165,216.685 99.548 C 216.593 98.703,216.432 97.852,216.328 97.656 C 216.223 97.460,215.995 96.539,215.822 95.608 C 215.649 94.678,215.402 93.429,215.272 92.833 C 214.684 90.129,214.743 89.854,215.848 90.171 C 217.859 90.748,220.167 88.467,220.167 85.903 C 220.167 84.888,220.245 84.504,220.583 83.869 C 220.861 83.346,221.000 82.820,221.000 82.285 C 221.000 81.844,221.102 81.281,221.227 81.033 C 221.351 80.786,221.497 80.200,221.549 79.731 C 221.606 79.229,221.816 78.628,222.062 78.266 C 222.592 77.485,222.772 76.134,222.498 74.993 C 222.386 74.523,222.332 73.848,222.380 73.492 C 222.502 72.580,222.390 72.539,219.583 72.463 C 217.126 72.397,217.062 72.386,215.826 71.801 C 213.914 70.897,212.527 69.400,211.245 66.858 C 210.824 66.023,210.415 65.301,210.337 65.252 C 210.259 65.204,210.144 64.861,210.082 64.490 C 210.019 64.119,209.795 63.630,209.585 63.402 C 209.374 63.175,209.153 62.732,209.094 62.417 C 208.985 61.834,208.798 61.591,208.607 61.782 M190.100 64.744 C 189.073 65.038,187.734 66.297,187.492 67.197 C 187.401 67.536,187.179 68.137,187.000 68.532 C 186.728 69.132,186.673 69.629,186.670 71.549 L 186.667 73.848 187.521 74.882 C 187.990 75.451,188.534 75.990,188.729 76.080 C 188.924 76.170,189.180 76.336,189.297 76.449 C 189.529 76.671,190.568 76.998,191.048 76.999 C 191.211 77.000,191.531 77.122,191.758 77.271 C 192.049 77.461,192.826 77.586,194.378 77.690 C 195.621 77.774,196.870 77.952,197.240 78.098 C 198.153 78.457,200.556 78.482,200.953 78.136 C 201.117 77.994,201.443 77.832,201.678 77.777 C 202.247 77.642,203.323 76.580,203.546 75.933 C 203.644 75.649,203.880 75.204,204.070 74.945 C 204.630 74.181,204.598 68.886,204.029 68.281 C 203.816 68.055,203.516 67.624,203.363 67.325 C 202.999 66.618,201.814 66.008,200.462 65.833 C 199.887 65.759,199.117 65.569,198.750 65.412 C 198.326 65.230,197.112 65.043,195.417 64.899 C 193.950 64.775,192.338 64.637,191.833 64.592 C 191.295 64.544,190.580 64.607,190.100 64.744 M181.167 66.254 C 181.167 66.811,180.991 67.695,180.724 68.488 L 180.281 69.800 180.634 70.942 C 180.873 71.715,181.023 72.783,181.098 74.250 C 181.169 75.642,181.310 76.685,181.492 77.167 C 181.723 77.777,181.744 78.056,181.602 78.667 C 181.319 79.878,181.390 81.891,181.734 82.416 L 182.028 82.864 184.445 82.807 C 187.226 82.741,187.396 82.654,187.582 81.201 C 187.637 80.770,187.742 80.024,187.816 79.544 C 187.954 78.635,187.733 78.174,187.154 78.161 C 185.757 78.131,184.628 76.681,184.319 74.522 C 184.223 73.847,184.065 73.097,183.969 72.855 C 183.873 72.614,183.705 71.474,183.595 70.321 C 183.374 68.005,182.670 66.146,181.877 65.785 C 181.670 65.691,181.500 65.550,181.500 65.473 C 181.500 65.396,181.425 65.333,181.333 65.333 C 181.242 65.333,181.167 65.748,181.167 66.254 M192.954 66.231 C 193.167 66.445,193.202 67.959,192.996 68.086 C 192.533 68.372,190.576 68.381,190.031 68.099 C 189.335 67.739,189.230 66.439,189.875 66.161 C 190.253 65.998,192.778 66.056,192.954 66.231 M200.426 67.412 C 202.096 68.089,202.345 71.468,200.784 72.275 C 200.253 72.550,196.613 72.494,195.847 72.200 C 194.213 71.572,194.261 67.313,195.906 66.936 C 196.780 66.737,199.453 67.018,200.426 67.412 M182.470 69.083 C 182.574 69.313,182.736 69.500,182.830 69.500 C 182.927 69.500,183.000 69.930,183.000 70.500 C 183.000 71.603,182.937 71.646,181.688 71.396 L 181.167 71.292 181.167 69.979 L 181.167 68.667 181.723 68.667 C 182.155 68.667,182.322 68.760,182.470 69.083 M210.292 69.019 C 209.707 69.455,209.628 70.861,210.151 71.525 C 210.392 71.832,210.497 72.340,210.589 73.636 C 210.681 74.925,210.787 75.442,211.025 75.744 C 211.261 76.043,211.373 76.580,211.476 77.893 C 211.559 78.955,211.711 79.794,211.863 80.029 C 212.001 80.242,212.162 80.933,212.220 81.564 C 212.278 82.195,212.479 83.030,212.668 83.420 C 212.857 83.809,213.081 84.557,213.166 85.082 C 213.440 86.764,213.957 86.865,214.354 85.315 L 214.568 84.482 214.899 85.185 C 215.765 87.026,217.460 88.056,218.403 87.314 C 218.945 86.888,218.974 86.913,218.874 87.714 C 218.814 88.198,218.654 88.450,218.189 88.797 C 217.856 89.045,217.523 89.342,217.450 89.457 C 217.202 89.847,215.934 89.712,215.500 89.250 C 214.269 87.940,213.327 89.555,214.232 91.426 C 214.528 92.038,214.657 92.657,214.732 93.833 C 214.810 95.041,214.913 95.524,215.167 95.868 C 215.369 96.142,215.500 96.582,215.500 96.985 C 215.500 97.875,215.812 99.330,216.100 99.786 C 216.228 99.989,216.333 100.521,216.333 100.969 C 216.333 101.806,216.603 102.833,216.823 102.833 C 216.891 102.833,217.030 103.016,217.131 103.239 C 217.261 103.524,217.479 103.662,217.866 103.704 C 218.202 103.741,217.978 103.794,217.291 103.840 L 216.166 103.917 216.166 103.146 C 216.167 102.049,216.010 101.407,215.648 101.019 C 215.418 100.771,215.331 100.421,215.323 99.715 C 215.309 98.320,215.091 97.188,214.791 96.954 C 214.609 96.812,214.511 96.384,214.468 95.549 C 214.422 94.648,214.317 94.226,214.047 93.862 C 213.815 93.547,213.648 93.001,213.576 92.313 C 213.514 91.728,213.332 91.020,213.172 90.739 C 212.810 90.103,212.661 89.148,212.650 87.380 C 212.642 86.292,212.575 85.929,212.320 85.605 C 212.103 85.329,212.000 84.934,212.000 84.379 C 212.000 83.425,211.699 81.660,211.494 81.411 C 211.416 81.316,211.276 80.762,211.182 80.180 C 211.088 79.598,210.878 78.974,210.714 78.794 C 210.487 78.544,210.396 78.079,210.330 76.830 C 210.262 75.547,210.175 75.119,209.930 74.848 C 209.695 74.588,209.583 74.092,209.477 72.836 C 209.381 71.705,209.228 70.970,209.001 70.546 C 208.464 69.544,209.008 68.662,210.156 68.672 L 210.750 68.677 210.292 69.019 M192.300 69.562 C 192.618 69.880,192.672 71.008,192.386 71.354 C 192.242 71.528,191.864 71.563,190.812 71.500 L 189.428 71.417 189.289 70.825 C 189.094 70.000,189.361 69.378,189.950 69.278 C 190.812 69.133,192.017 69.279,192.300 69.562 M203.858 72.990 C 203.811 73.706,203.763 73.834,203.631 73.596 C 203.521 73.401,203.512 72.619,203.605 71.356 L 203.747 69.417 203.832 70.750 C 203.878 71.483,203.890 72.491,203.858 72.990 M211.809 70.573 C 212.349 71.374,212.349 71.778,211.807 72.481 C 211.638 72.699,211.500 72.981,211.500 73.106 C 211.500 73.231,211.425 73.333,211.333 73.333 C 211.242 73.333,211.167 73.085,211.167 72.781 C 211.167 72.477,211.087 71.796,210.989 71.269 C 210.856 70.550,210.862 70.250,211.010 70.072 C 211.274 69.753,211.242 69.733,211.809 70.573 M213.736 73.133 C 214.003 73.426,214.304 73.667,214.404 73.667 C 214.504 73.667,214.680 73.817,214.795 74.000 C 214.909 74.183,215.100 74.333,215.219 74.333 C 215.338 74.333,215.679 74.513,215.976 74.732 C 216.274 74.952,216.867 75.184,217.294 75.248 C 217.722 75.312,218.222 75.470,218.406 75.599 C 218.849 75.909,220.782 75.899,221.333 75.583 C 222.043 75.178,222.167 75.263,222.167 76.158 C 222.167 76.736,222.088 77.028,221.904 77.130 C 221.760 77.211,221.552 77.458,221.442 77.680 C 220.929 78.711,216.852 78.198,214.000 76.743 L 212.917 76.190 212.785 74.970 C 212.614 73.389,212.777 71.772,213.058 72.263 C 213.164 72.448,213.469 72.839,213.736 73.133 M192.167 73.234 C 192.854 73.363,194.129 73.521,195.000 73.586 C 195.871 73.650,196.820 73.801,197.109 73.920 C 197.398 74.039,198.059 74.224,198.577 74.332 C 199.572 74.539,200.098 75.136,199.664 75.569 C 199.376 75.856,194.124 75.713,193.269 75.394 C 192.533 75.119,191.536 74.901,190.333 74.752 C 189.312 74.624,188.830 73.910,189.389 73.352 C 189.809 72.932,190.416 72.906,192.167 73.234 M203.000 75.283 C 203.000 75.593,202.946 75.680,202.828 75.561 C 202.733 75.467,202.704 75.264,202.762 75.111 C 202.917 74.709,203.000 74.769,203.000 75.283 M212.118 76.373 C 212.078 76.580,212.044 76.450,212.042 76.083 C 212.040 75.717,212.073 75.547,212.115 75.706 C 212.156 75.866,212.158 76.166,212.118 76.373 M201.417 77.000 C 201.478 77.099,201.296 77.162,200.968 77.155 C 200.509 77.145,200.472 77.119,200.750 77.000 C 201.202 76.806,201.297 76.806,201.417 77.000 M186.661 81.647 L 186.141 82.167 184.071 82.167 L 182.000 82.167 182.007 81.375 C 182.013 80.592,182.016 80.588,182.253 81.024 C 183.069 82.527,186.188 81.368,186.952 79.276 C 187.044 79.024,187.098 79.246,187.132 80.022 C 187.178 81.066,187.152 81.155,186.661 81.647 M213.188 80.914 C 213.117 82.118,212.833 81.978,212.838 80.742 C 212.843 79.786,212.877 79.641,213.035 79.914 C 213.141 80.096,213.210 80.546,213.188 80.914 M213.956 83.280 L 213.767 83.694 213.630 83.323 C 213.416 82.745,213.640 82.176,213.927 82.569 C 214.094 82.798,214.101 82.962,213.956 83.280 " stroke="none" fill="#8f959e" fill-rule="evenodd"></path><path id="path4" d="M215.145 4.159 C 214.721 4.236,214.204 4.391,213.995 4.503 C 213.787 4.614,213.084 4.772,212.433 4.853 C 211.765 4.937,210.893 5.182,210.430 5.417 C 209.979 5.646,209.520 5.833,209.409 5.833 C 209.155 5.833,207.722 6.617,207.146 7.072 C 206.905 7.261,206.493 7.562,206.229 7.740 C 205.503 8.231,203.540 10.273,203.244 10.846 C 203.100 11.124,202.836 11.497,202.658 11.676 C 202.479 11.854,202.333 12.095,202.333 12.211 C 202.333 12.327,202.185 12.697,202.005 13.035 C 201.824 13.372,201.589 14.008,201.482 14.449 C 201.129 15.901,201.059 15.932,197.827 16.060 C 196.062 16.129,194.762 16.259,194.373 16.405 C 194.030 16.535,193.486 16.684,193.164 16.737 C 192.841 16.790,192.298 16.984,191.956 17.167 C 191.614 17.350,191.157 17.500,190.940 17.500 C 190.723 17.500,190.269 17.720,189.931 17.989 C 189.593 18.257,189.076 18.526,188.783 18.586 C 187.228 18.902,185.656 19.983,184.266 21.691 C 183.904 22.136,183.553 22.500,183.487 22.500 C 183.421 22.500,183.213 22.744,183.026 23.042 C 182.839 23.340,182.456 23.905,182.176 24.298 C 181.895 24.692,181.551 25.254,181.412 25.548 C 181.272 25.843,181.048 26.271,180.915 26.500 C 180.781 26.729,180.670 27.150,180.669 27.436 C 180.668 27.721,180.511 28.153,180.321 28.395 C 179.719 29.160,179.638 30.627,179.695 39.722 L 179.750 48.361 178.246 49.805 C 176.870 51.126,176.443 51.631,175.898 52.583 C 175.300 53.628,174.522 55.172,174.419 55.518 C 174.147 56.429,173.135 58.339,172.840 58.496 C 172.308 58.781,174.067 61.500,174.784 61.500 C 174.821 61.500,175.353 61.824,175.967 62.221 C 177.527 63.228,178.812 63.927,179.522 64.153 C 180.784 64.555,181.206 67.300,180.202 68.576 C 179.710 69.202,179.704 70.290,180.189 70.907 C 180.512 71.318,180.555 71.641,180.653 74.388 C 180.713 76.054,180.818 77.507,180.886 77.618 C 180.955 77.729,180.921 78.447,180.810 79.213 C 180.632 80.441,180.643 80.711,180.898 81.492 C 181.335 82.829,180.668 83.069,175.750 83.343 C 167.844 83.785,168.901 83.321,166.859 87.250 C 166.620 87.708,166.335 88.177,166.225 88.291 C 166.001 88.523,165.000 90.585,165.000 90.813 C 165.000 90.894,164.897 91.045,164.770 91.150 C 164.644 91.255,164.496 91.562,164.442 91.832 C 164.388 92.102,164.199 92.468,164.022 92.645 C 163.845 92.822,163.644 93.141,163.577 93.353 C 163.449 93.756,162.587 95.439,161.923 96.583 C 161.140 97.932,161.265 98.217,163.348 99.833 C 163.643 100.063,164.117 100.438,164.401 100.667 C 164.904 101.072,165.085 101.197,166.041 101.796 C 166.292 101.954,166.498 102.174,166.499 102.286 C 166.500 102.397,166.669 102.577,166.875 102.686 C 167.271 102.894,167.946 103.410,168.711 104.090 C 168.965 104.316,169.266 104.500,169.379 104.500 C 169.493 104.500,169.680 104.650,169.795 104.833 C 169.909 105.017,170.085 105.167,170.185 105.167 C 170.284 105.167,170.575 105.373,170.830 105.625 C 171.338 106.128,171.521 106.281,172.603 107.107 C 173.460 107.761,174.151 107.827,174.962 107.333 C 175.262 107.150,175.645 107.000,175.813 107.000 C 175.980 107.000,176.449 106.824,176.855 106.608 C 177.260 106.392,177.945 106.163,178.377 106.098 C 178.860 106.026,179.247 105.858,179.385 105.662 C 179.540 105.440,179.903 105.309,180.580 105.229 C 181.152 105.162,181.671 104.995,181.842 104.825 C 182.001 104.666,182.458 104.483,182.857 104.418 C 183.257 104.354,183.831 104.159,184.135 103.984 C 184.438 103.810,184.819 103.667,184.981 103.667 C 185.144 103.667,185.632 103.487,186.066 103.267 C 186.499 103.048,187.186 102.818,187.591 102.758 C 188.032 102.691,188.418 102.519,188.551 102.328 C 188.707 102.106,189.069 101.975,189.747 101.896 C 190.319 101.828,190.838 101.662,191.008 101.492 C 191.168 101.332,191.625 101.149,192.024 101.085 C 192.423 101.021,192.979 100.837,193.260 100.675 C 193.540 100.514,194.062 100.327,194.421 100.260 C 194.779 100.193,195.262 100.005,195.494 99.843 C 195.727 99.681,196.287 99.500,196.741 99.440 C 197.208 99.378,197.717 99.188,197.917 99.000 C 198.121 98.808,198.616 98.626,199.093 98.568 C 199.546 98.512,200.113 98.329,200.352 98.162 C 200.592 97.994,201.079 97.806,201.436 97.743 C 201.792 97.681,202.318 97.496,202.604 97.333 C 202.891 97.169,203.379 96.983,203.688 96.918 C 203.997 96.854,204.480 96.669,204.761 96.507 C 205.043 96.346,205.623 96.161,206.051 96.097 C 206.522 96.026,206.915 95.857,207.048 95.667 C 207.195 95.456,207.565 95.318,208.175 95.244 C 208.675 95.184,209.275 95.000,209.510 94.836 C 209.745 94.671,210.358 94.449,210.872 94.343 C 211.387 94.236,211.898 94.040,212.008 93.908 C 212.498 93.317,212.969 93.612,213.091 94.586 C 213.154 95.091,213.336 95.672,213.495 95.877 C 213.700 96.142,213.832 96.794,213.948 98.123 C 214.059 99.391,214.195 100.091,214.371 100.290 C 214.528 100.466,214.677 101.082,214.745 101.833 C 215.030 104.949,216.047 105.974,217.702 104.816 C 217.950 104.642,218.371 104.500,218.637 104.500 C 218.904 104.500,219.319 104.345,219.560 104.156 L 219.997 103.811 219.608 103.114 C 219.249 102.472,219.164 102.417,218.536 102.417 C 217.903 102.417,217.847 102.379,217.756 101.892 C 217.702 101.603,217.520 101.191,217.352 100.975 C 217.116 100.673,217.027 100.191,216.965 98.871 C 216.896 97.415,216.830 97.101,216.525 96.777 C 216.259 96.493,216.166 96.184,216.166 95.573 C 216.164 94.348,215.878 92.825,215.588 92.506 C 215.423 92.322,215.333 91.893,215.333 91.279 C 215.333 90.316,215.462 90.136,215.833 90.583 C 216.098 90.902,216.841 90.905,217.260 90.589 C 217.438 90.454,217.729 90.342,217.907 90.339 C 218.221 90.333,219.500 89.120,219.500 88.827 C 219.500 88.747,219.688 88.494,219.917 88.265 C 220.146 88.036,220.333 87.737,220.333 87.601 C 220.333 87.432,220.584 87.320,221.125 87.247 C 221.560 87.188,222.303 87.034,222.776 86.904 C 223.248 86.773,223.857 86.667,224.130 86.667 C 224.402 86.667,224.953 86.551,225.354 86.409 C 226.426 86.030,227.465 85.810,228.501 85.743 C 229.006 85.710,229.756 85.536,230.168 85.356 C 230.580 85.175,231.292 84.979,231.750 84.920 C 232.208 84.861,233.183 84.668,233.917 84.493 C 234.650 84.317,235.671 84.094,236.185 83.996 C 237.342 83.777,237.500 83.498,237.500 81.676 C 237.500 79.546,235.518 78.640,233.341 79.776 C 233.108 79.898,232.728 79.998,232.496 79.999 C 232.265 80.000,231.553 80.151,230.913 80.336 C 230.273 80.520,229.124 80.741,228.359 80.827 C 227.594 80.913,226.806 81.087,226.609 81.214 C 226.077 81.557,224.809 81.833,223.770 81.833 C 223.267 81.833,222.667 81.905,222.436 81.993 C 221.659 82.288,221.661 80.356,222.440 78.713 C 222.816 77.920,222.852 77.648,222.845 75.656 C 222.831 72.090,223.194 71.499,225.405 71.500 C 225.778 71.501,226.383 71.352,226.750 71.169 C 227.117 70.987,227.941 70.637,228.581 70.392 C 230.890 69.507,232.242 68.364,231.861 67.617 C 231.364 66.642,230.833 64.549,230.833 63.562 C 230.833 63.067,230.574 62.550,229.056 60.018 C 228.067 58.369,224.817 55.167,224.132 55.167 C 224.040 55.167,223.745 54.982,223.477 54.756 C 223.209 54.531,222.744 54.278,222.443 54.195 C 220.805 53.743,219.878 52.528,220.528 51.685 C 220.970 51.111,220.669 50.833,219.605 50.833 L 218.750 50.833 218.304 49.958 C 218.059 49.477,217.809 48.767,217.749 48.380 C 217.688 47.993,217.505 47.506,217.340 47.297 C 216.896 46.731,216.714 44.623,217.064 44.089 C 217.210 43.866,217.264 43.643,217.184 43.594 C 217.103 43.544,216.988 43.239,216.927 42.915 C 216.867 42.591,216.585 42.063,216.303 41.740 C 215.720 41.076,215.705 40.053,216.265 38.972 C 216.504 38.509,216.531 38.121,216.441 36.421 C 216.294 33.644,216.766 32.200,217.328 33.708 C 217.439 34.006,217.669 34.587,217.840 35.000 C 218.011 35.412,218.202 36.084,218.263 36.493 C 218.443 37.691,219.597 40.428,220.229 41.154 C 220.355 41.298,220.561 41.618,220.687 41.864 C 220.995 42.463,223.246 44.773,224.230 45.500 C 224.665 45.821,225.233 46.252,225.493 46.458 C 225.752 46.665,226.036 46.833,226.123 46.833 C 226.210 46.833,226.499 47.021,226.766 47.250 C 227.032 47.479,227.375 47.666,227.529 47.666 C 227.682 47.667,228.020 47.843,228.279 48.058 C 228.538 48.273,229.000 48.497,229.305 48.556 C 229.611 48.615,230.044 48.808,230.268 48.985 C 230.493 49.161,230.993 49.359,231.380 49.424 C 231.767 49.489,232.231 49.645,232.412 49.771 C 232.811 50.049,234.267 50.075,234.432 49.808 C 234.585 49.561,234.047 49.167,233.558 49.167 C 233.350 49.167,233.083 49.051,232.965 48.909 C 232.847 48.767,232.650 48.561,232.529 48.450 C 232.296 48.240,231.334 47.241,230.721 46.572 C 230.522 46.355,230.306 46.006,230.240 45.797 C 230.175 45.588,229.944 45.205,229.727 44.946 C 229.511 44.686,229.333 44.346,229.333 44.189 C 229.333 44.032,229.188 43.619,229.011 43.271 C 228.833 42.923,228.608 42.266,228.511 41.811 C 228.413 41.356,228.230 40.781,228.104 40.533 C 227.777 39.894,227.453 34.825,227.721 34.556 C 227.778 34.499,228.233 34.801,228.731 35.226 C 229.229 35.652,229.701 36.000,229.779 36.000 C 229.857 36.000,230.204 36.151,230.549 36.336 C 230.893 36.521,231.567 36.753,232.046 36.853 C 232.525 36.952,233.258 37.142,233.675 37.275 C 234.267 37.464,234.542 37.475,234.925 37.328 L 235.417 37.140 234.917 36.881 C 234.642 36.739,234.280 36.480,234.112 36.305 C 233.945 36.130,233.597 35.944,233.339 35.893 C 232.715 35.768,230.573 33.678,230.152 32.784 C 229.970 32.399,229.713 31.896,229.580 31.667 C 229.384 31.328,229.341 30.372,229.351 26.583 C 229.362 22.111,229.208 19.870,228.860 19.447 C 228.771 19.339,228.645 18.875,228.581 18.417 C 228.517 17.958,228.331 17.349,228.167 17.063 C 228.004 16.777,227.818 16.235,227.754 15.860 C 227.691 15.484,227.507 15.006,227.346 14.797 C 226.602 13.832,226.838 13.260,227.672 14.005 C 227.977 14.277,228.285 14.500,228.356 14.500 C 228.427 14.500,228.672 14.669,228.901 14.875 C 230.576 16.383,230.575 16.383,230.854 15.771 C 231.038 15.367,230.823 14.667,230.515 14.667 C 230.438 14.667,230.328 14.430,230.270 14.141 C 230.030 12.940,227.295 9.749,225.966 9.118 C 225.643 8.965,225.288 8.729,225.176 8.595 C 225.065 8.460,224.708 8.263,224.384 8.156 C 224.060 8.049,223.658 7.824,223.490 7.657 C 223.322 7.489,222.919 7.302,222.593 7.241 C 222.267 7.180,222.000 7.079,222.000 7.017 C 222.000 6.956,221.756 6.760,221.458 6.583 L 220.917 6.260 221.583 6.133 C 221.950 6.063,222.813 6.013,223.500 6.020 C 225.154 6.039,225.116 6.047,225.210 5.684 C 225.327 5.238,224.832 5.045,223.250 4.918 C 222.476 4.857,221.602 4.669,221.167 4.472 C 220.321 4.089,216.587 3.894,215.145 4.159 M220.523 4.762 C 220.802 4.906,221.737 5.104,222.602 5.203 C 224.492 5.417,224.485 5.470,222.540 5.671 C 221.715 5.757,220.824 5.909,220.561 6.010 L 220.083 6.194 220.744 6.752 C 221.118 7.068,221.814 7.424,222.352 7.575 C 222.874 7.722,223.341 7.945,223.389 8.072 C 223.438 8.198,223.701 8.351,223.975 8.411 C 224.249 8.471,224.748 8.722,225.084 8.969 C 226.142 9.744,227.911 11.221,228.045 11.440 C 228.116 11.556,228.267 11.748,228.382 11.867 C 229.382 12.910,230.233 14.670,229.852 14.905 C 229.759 14.962,229.147 14.595,228.491 14.088 C 227.835 13.581,227.197 13.167,227.072 13.167 C 226.474 13.167,226.465 14.472,227.060 15.148 C 227.189 15.296,227.381 15.824,227.486 16.322 C 227.591 16.820,227.757 17.325,227.856 17.444 C 228.526 18.251,229.011 22.349,228.967 26.833 L 228.924 31.250 229.540 32.500 C 230.320 34.085,232.017 35.869,232.974 36.112 C 233.267 36.186,233.309 36.246,233.141 36.353 C 232.766 36.591,231.944 36.517,231.331 36.191 C 231.011 36.021,230.478 35.794,230.146 35.685 C 229.814 35.577,229.214 35.176,228.813 34.795 C 228.412 34.414,227.831 34.010,227.524 33.898 L 226.964 33.694 227.048 34.805 C 227.475 40.433,228.233 43.649,229.525 45.314 C 229.695 45.533,229.833 45.811,229.833 45.931 C 229.833 46.137,230.818 47.301,231.888 48.358 C 232.704 49.166,231.806 49.377,230.583 48.665 C 230.308 48.505,229.783 48.279,229.417 48.163 C 229.050 48.047,228.571 47.812,228.353 47.642 C 228.134 47.472,227.877 47.333,227.782 47.333 C 227.687 47.333,226.853 46.828,225.929 46.211 C 223.487 44.578,221.386 42.417,220.243 40.362 C 220.056 40.025,219.784 39.563,219.639 39.333 C 219.494 39.104,219.285 38.543,219.175 38.086 C 219.065 37.628,218.912 37.178,218.836 37.086 C 218.759 36.993,218.609 36.438,218.503 35.853 C 218.397 35.269,218.166 34.520,217.989 34.189 C 217.812 33.859,217.667 33.498,217.667 33.388 C 217.667 33.277,217.452 32.952,217.190 32.666 C 216.793 32.230,216.696 31.946,216.604 30.947 C 216.544 30.289,216.349 29.337,216.170 28.833 C 215.991 28.329,215.842 27.746,215.839 27.537 C 215.831 27.006,214.205 23.186,213.836 22.833 C 213.788 22.787,213.418 22.314,213.012 21.781 C 212.140 20.633,210.168 18.770,209.338 18.310 C 208.133 17.641,207.897 17.523,207.083 17.176 C 206.016 16.721,204.682 16.341,203.417 16.131 C 201.756 15.856,201.612 15.762,201.745 15.037 C 202.127 12.952,204.200 9.752,206.008 8.456 C 206.233 8.295,206.754 7.907,207.167 7.593 C 207.969 6.982,209.837 6.000,210.198 5.999 C 210.318 5.999,210.655 5.853,210.947 5.676 C 211.240 5.496,212.090 5.268,212.853 5.164 C 213.610 5.060,214.459 4.875,214.739 4.751 C 215.519 4.409,219.856 4.417,220.523 4.762 M186.987 20.804 C 186.811 21.028,186.667 21.399,186.667 21.628 C 186.667 21.857,186.523 22.278,186.348 22.564 C 186.037 23.071,185.632 24.900,185.311 27.250 C 185.141 28.501,185.257 31.875,185.503 32.833 C 185.586 33.154,185.738 34.129,185.841 35.000 C 185.944 35.871,186.159 36.883,186.319 37.250 C 186.478 37.617,186.709 38.373,186.832 38.930 C 187.044 39.886,187.080 39.938,187.484 39.861 C 187.902 39.781,189.167 38.623,189.167 38.320 C 189.167 38.236,189.258 38.167,189.369 38.167 C 189.480 38.167,189.724 37.988,189.910 37.770 C 190.378 37.224,192.468 35.500,192.663 35.500 C 192.750 35.500,192.993 35.343,193.202 35.152 C 193.912 34.502,194.878 33.833,195.106 33.833 C 195.231 33.833,195.475 33.691,195.649 33.518 C 195.823 33.344,196.290 33.147,196.688 33.080 C 197.086 33.013,197.500 32.836,197.608 32.687 C 197.985 32.171,200.965 32.212,201.568 32.741 C 201.834 32.975,202.150 33.167,202.270 33.167 C 202.390 33.167,202.568 33.315,202.665 33.496 C 202.762 33.678,203.035 34.020,203.272 34.256 C 203.849 34.833,203.815 36.918,203.218 37.541 C 201.455 39.385,200.351 40.333,199.967 40.333 C 199.808 40.333,199.598 40.483,199.501 40.666 C 199.389 40.873,199.077 41.037,198.666 41.103 C 198.247 41.170,197.976 41.314,197.916 41.503 C 197.817 41.813,197.361 41.994,196.665 41.998 C 196.433 41.999,196.157 42.145,196.044 42.325 C 195.932 42.504,195.559 42.702,195.212 42.766 C 194.866 42.830,194.406 43.019,194.190 43.187 C 193.974 43.356,193.446 43.540,193.017 43.597 C 191.868 43.749,191.646 44.210,191.862 45.994 C 192.212 48.887,194.430 51.346,197.000 51.690 C 197.504 51.758,198.316 51.866,198.805 51.931 C 199.622 52.040,201.278 51.887,203.417 51.504 C 205.306 51.167,209.232 49.541,210.223 48.686 C 210.392 48.540,210.711 48.345,210.932 48.252 C 211.606 47.969,213.812 45.680,214.680 44.365 L 215.498 43.123 215.910 44.021 C 216.136 44.515,216.370 45.369,216.429 45.918 C 216.489 46.467,216.715 47.302,216.932 47.774 C 217.411 48.815,217.637 50.395,217.334 50.583 C 217.221 50.653,216.181 50.776,215.022 50.856 C 213.864 50.937,212.467 51.122,211.917 51.267 C 211.367 51.412,210.065 51.634,209.025 51.759 C 207.984 51.885,207.046 52.060,206.939 52.148 C 206.833 52.236,206.384 52.400,205.941 52.511 C 204.173 52.957,203.771 55.449,205.309 56.433 C 205.551 56.589,205.862 56.814,206.000 56.934 C 209.004 59.553,209.217 61.158,206.562 61.164 C 205.877 61.166,205.475 61.246,205.341 61.408 C 204.718 62.158,193.092 62.284,191.750 61.554 C 191.308 61.314,190.664 61.162,189.842 61.103 C 188.995 61.042,188.465 60.914,188.174 60.699 C 187.940 60.525,187.387 60.329,186.945 60.263 C 186.478 60.193,186.028 60.008,185.868 59.821 C 185.716 59.645,185.418 59.500,185.205 59.500 C 184.992 59.500,184.631 59.313,184.402 59.083 C 184.172 58.854,183.872 58.667,183.734 58.667 C 183.597 58.667,183.319 58.490,183.117 58.273 C 182.915 58.057,182.600 57.832,182.417 57.774 C 181.903 57.612,180.737 56.151,180.610 55.511 C 180.547 55.196,180.375 54.805,180.228 54.642 C 179.946 54.331,179.862 49.011,180.133 48.597 C 180.197 48.498,180.250 44.179,180.250 39.000 L 180.250 29.583 180.620 29.005 C 180.824 28.688,181.038 28.109,181.097 27.719 C 181.155 27.330,181.303 26.927,181.426 26.825 C 181.549 26.723,181.739 26.365,181.849 26.028 C 181.959 25.692,182.097 25.379,182.156 25.333 C 182.289 25.229,183.667 23.196,183.667 23.102 C 183.667 23.065,184.042 22.651,184.500 22.183 C 184.958 21.715,185.333 21.257,185.333 21.166 C 185.333 21.075,185.445 21.000,185.582 21.000 C 185.719 21.000,185.924 20.850,186.039 20.667 C 186.153 20.483,186.374 20.333,186.530 20.333 C 186.686 20.333,186.865 20.250,186.928 20.149 C 187.008 20.019,187.081 20.028,187.175 20.180 C 187.256 20.310,187.181 20.557,186.987 20.804 M209.094 62.417 C 209.153 62.732,209.374 63.175,209.585 63.402 C 209.795 63.630,210.019 64.119,210.082 64.490 C 210.144 64.861,210.259 65.204,210.337 65.252 C 210.415 65.301,210.824 66.023,211.245 66.858 C 212.527 69.400,213.914 70.897,215.826 71.801 C 217.062 72.386,217.126 72.397,219.583 72.463 C 222.390 72.539,222.502 72.580,222.380 73.492 C 222.332 73.848,222.386 74.523,222.498 74.993 C 222.772 76.134,222.592 77.485,222.062 78.266 C 221.816 78.628,221.606 79.229,221.549 79.731 C 221.497 80.200,221.351 80.786,221.227 81.033 C 221.102 81.281,221.000 81.844,221.000 82.285 C 221.000 82.820,220.861 83.346,220.583 83.869 C 220.245 84.504,220.167 84.888,220.167 85.903 C 220.167 88.467,217.859 90.748,215.848 90.171 C 214.743 89.854,214.684 90.129,215.272 92.833 C 215.402 93.429,215.649 94.678,215.822 95.608 C 215.995 96.539,216.223 97.460,216.328 97.656 C 216.432 97.852,216.593 98.703,216.685 99.548 C 216.862 101.165,217.573 102.938,218.029 102.896 C 218.150 102.885,218.397 102.847,218.577 102.813 C 218.804 102.769,218.973 102.892,219.132 103.217 C 219.430 103.827,219.206 104.103,218.284 104.258 C 217.901 104.323,217.295 104.479,216.937 104.606 C 215.935 104.959,215.480 104.135,215.001 101.101 C 214.901 100.469,214.746 99.815,214.656 99.647 C 214.567 99.480,214.381 98.572,214.243 97.630 C 213.651 93.574,213.035 92.745,211.228 93.572 C 210.714 93.807,210.170 94.000,210.019 94.000 C 209.868 94.000,209.475 94.145,209.145 94.322 C 208.815 94.498,208.254 94.694,207.898 94.756 C 207.541 94.819,206.987 95.041,206.667 95.251 C 206.346 95.460,205.745 95.679,205.331 95.737 C 204.917 95.795,204.354 95.990,204.081 96.170 C 203.807 96.350,203.454 96.498,203.295 96.499 C 202.999 96.500,201.269 97.128,200.083 97.666 C 199.717 97.832,199.054 98.053,198.610 98.157 C 198.166 98.261,197.604 98.485,197.360 98.656 C 197.116 98.827,196.547 99.012,196.094 99.067 C 195.642 99.123,195.085 99.291,194.857 99.440 C 194.629 99.590,194.099 99.809,193.680 99.927 C 193.260 100.044,192.317 100.378,191.583 100.667 C 190.850 100.956,189.838 101.306,189.333 101.444 C 188.829 101.583,188.301 101.799,188.160 101.925 C 188.019 102.052,187.494 102.243,186.995 102.350 C 186.495 102.457,185.922 102.653,185.720 102.785 C 185.519 102.917,184.993 103.128,184.552 103.255 C 183.282 103.619,181.787 104.153,181.333 104.405 C 181.104 104.532,180.617 104.687,180.250 104.750 C 179.883 104.813,179.380 105.008,179.131 105.183 C 178.882 105.358,178.282 105.584,177.798 105.685 C 177.313 105.787,176.692 106.005,176.417 106.171 C 176.142 106.336,175.646 106.522,175.316 106.583 C 174.986 106.645,174.508 106.831,174.255 106.997 L 173.794 107.299 172.605 106.401 C 171.952 105.907,171.267 105.364,171.083 105.194 C 170.900 105.024,170.415 104.630,170.006 104.318 C 169.597 104.005,168.863 103.431,168.375 103.042 C 167.886 102.652,167.412 102.333,167.320 102.333 C 167.229 102.333,166.793 101.977,166.353 101.542 C 165.912 101.106,165.010 100.375,164.347 99.917 C 162.865 98.892,161.952 98.033,162.056 97.762 C 162.147 97.523,164.118 96.925,165.667 96.667 C 166.262 96.567,167.031 96.377,167.373 96.245 C 167.716 96.112,168.616 95.933,169.373 95.846 C 170.131 95.759,171.088 95.541,171.500 95.362 C 171.912 95.182,172.767 94.983,173.399 94.919 C 174.031 94.854,174.850 94.695,175.220 94.564 C 175.590 94.434,176.423 94.247,177.071 94.150 C 177.720 94.053,178.625 93.868,179.083 93.741 C 179.542 93.613,180.468 93.425,181.141 93.322 C 181.815 93.220,182.620 93.030,182.930 92.900 C 183.241 92.771,184.152 92.595,184.956 92.511 C 185.759 92.426,186.754 92.209,187.167 92.028 C 187.579 91.847,188.477 91.645,189.163 91.579 C 189.848 91.513,190.697 91.357,191.050 91.232 C 191.403 91.108,192.363 90.889,193.184 90.747 C 194.005 90.605,194.855 90.420,195.072 90.337 C 195.290 90.255,196.077 90.104,196.820 90.002 C 197.564 89.900,198.481 89.708,198.859 89.574 C 199.237 89.441,200.170 89.261,200.932 89.174 C 201.694 89.088,202.546 88.899,202.825 88.754 C 203.104 88.610,204.064 88.388,204.958 88.261 C 205.852 88.134,206.782 87.953,207.026 87.859 C 207.269 87.764,207.944 87.605,208.526 87.504 C 210.813 87.108,211.300 86.961,211.453 86.618 C 211.649 86.178,211.401 84.213,211.076 83.633 C 210.937 83.385,210.763 82.523,210.688 81.716 C 210.603 80.806,210.423 79.997,210.212 79.583 C 210.025 79.217,209.818 78.429,209.750 77.833 C 209.683 77.237,209.524 76.548,209.398 76.301 C 209.271 76.053,209.085 75.266,208.986 74.551 C 208.886 73.835,208.704 73.025,208.582 72.750 C 207.660 70.673,207.967 68.170,209.143 68.164 C 210.407 68.158,210.438 67.965,209.498 65.917 C 209.002 64.836,208.500 63.105,208.500 62.474 C 208.500 61.473,208.910 61.433,209.094 62.417 M195.417 64.899 C 197.112 65.043,198.326 65.230,198.750 65.412 C 199.117 65.569,199.887 65.759,200.462 65.833 C 201.814 66.008,202.999 66.618,203.363 67.325 C 203.516 67.624,203.816 68.055,204.029 68.281 C 204.598 68.886,204.630 74.181,204.070 74.945 C 203.880 75.204,203.644 75.649,203.546 75.933 C 203.323 76.580,202.247 77.642,201.678 77.777 C 201.443 77.832,201.117 77.994,200.953 78.136 C 200.556 78.482,198.153 78.457,197.240 78.098 C 196.870 77.952,195.621 77.774,194.378 77.690 C 192.826 77.586,192.049 77.461,191.758 77.271 C 191.531 77.122,191.211 77.000,191.048 76.999 C 190.568 76.998,189.529 76.671,189.297 76.449 C 189.180 76.336,188.924 76.170,188.729 76.080 C 188.534 75.990,187.990 75.451,187.521 74.882 L 186.667 73.848 186.670 71.549 C 186.673 69.629,186.728 69.132,187.000 68.532 C 187.179 68.137,187.401 67.536,187.492 67.197 C 187.909 65.648,189.948 64.424,191.833 64.592 C 192.338 64.637,193.950 64.775,195.417 64.899 M181.500 65.473 C 181.500 65.550,181.670 65.691,181.877 65.785 C 182.670 66.146,183.374 68.005,183.595 70.321 C 183.705 71.474,183.873 72.614,183.969 72.855 C 184.065 73.097,184.223 73.847,184.319 74.522 C 184.628 76.681,185.757 78.131,187.154 78.161 C 187.733 78.174,187.954 78.635,187.816 79.544 C 187.742 80.024,187.637 80.770,187.582 81.201 C 187.396 82.654,187.226 82.741,184.445 82.807 L 182.028 82.864 181.734 82.416 C 181.390 81.891,181.319 79.878,181.602 78.667 C 181.744 78.056,181.723 77.777,181.492 77.167 C 181.310 76.685,181.169 75.642,181.098 74.250 C 181.023 72.783,180.873 71.715,180.634 70.942 L 180.281 69.800 180.724 68.488 C 180.991 67.695,181.167 66.811,181.167 66.254 C 181.167 65.748,181.242 65.333,181.333 65.333 C 181.425 65.333,181.500 65.396,181.500 65.473 M211.010 70.072 C 210.862 70.250,210.856 70.550,210.989 71.269 C 211.087 71.796,211.167 72.477,211.167 72.781 C 211.167 73.085,211.242 73.333,211.333 73.333 C 211.425 73.333,211.500 73.231,211.500 73.106 C 211.500 72.981,211.638 72.699,211.807 72.481 C 212.349 71.778,212.349 71.374,211.809 70.573 C 211.242 69.733,211.274 69.753,211.010 70.072 M212.042 76.083 C 212.044 76.450,212.078 76.580,212.118 76.373 C 212.158 76.166,212.156 75.866,212.115 75.706 C 212.073 75.547,212.040 75.717,212.042 76.083 M190.063 79.333 C 190.510 79.431,191.004 79.579,191.160 79.663 C 191.736 79.971,196.662 80.784,198.833 80.928 C 202.154 81.150,201.066 81.466,196.567 81.586 C 192.981 81.682,189.195 81.917,188.292 82.100 C 187.852 82.189,187.833 82.166,187.833 81.518 C 187.833 80.615,188.609 78.961,188.980 79.073 C 189.128 79.118,189.616 79.235,190.063 79.333 M209.746 79.486 C 209.801 79.661,209.798 79.999,209.739 80.236 L 209.631 80.667 207.440 80.650 C 204.501 80.628,203.957 80.463,205.917 80.189 C 206.742 80.073,207.584 79.870,207.789 79.738 C 208.092 79.541,208.944 79.270,209.530 79.183 C 209.593 79.174,209.690 79.310,209.746 79.486 M212.838 80.742 C 212.835 81.471,212.892 81.841,212.991 81.742 C 213.226 81.506,213.255 80.294,213.035 79.914 C 212.877 79.641,212.843 79.786,212.838 80.742 M213.601 82.611 C 213.541 82.799,213.555 83.119,213.630 83.323 L 213.767 83.694 213.956 83.280 C 214.101 82.962,214.094 82.798,213.927 82.569 C 213.720 82.286,213.703 82.289,213.601 82.611 " stroke="none" fill="#cbd1db" fill-rule="evenodd"></path></g></svg>